<?xml version="1.0" encoding="utf-8"?>
<!-- Generator: Adobe Illustrator 19.2.1, SVG Export Plug-In . SVG Version: 6.00 Build 0)  -->
<svg version="1.1" id="Camada_1" xmlns="http://www.w3.org/2000/svg" xmlns:xlink="http://www.w3.org/1999/xlink" x="0px" y="0px"
	 viewBox="0 0 512 512" style="enable-background:new 0 0 512 512;" xml:space="preserve">
<style type="text/css">
	.st0{fill:#FFA500;}
</style>
<g>
	<g>
		<path class="st0" d="M256,0C114,0,0,114,0,256s114,256,256,256s256-114,256-256S398,0,256,0z M395.6,232.7h-17.5
			c-3.5,0-5.8,2.3-5.8,5.8V384c0,7-4.7,11.6-11.6,11.6H151.3c-7,0-11.6-4.7-11.6-11.6V238.5c0-3.5-2.3-5.8-5.8-5.8h-17.5
			c-7,0-11.6-4.7-11.6-11.6c0-3.5,2.3-8.1,4.7-9.3L249,118.7c2.3-1.2,3.5-2.3,7-2.3c3.5,0,4.7,1.2,7,2.3l139.6,93.1
			c3.5,2.3,4.7,5.8,4.7,9.3C407.3,228.1,402.6,232.7,395.6,232.7z"/>
		<path class="st0" d="M259.5,172.2c-2.3-1.2-4.7-1.2-7,0l-64,43.1c-1.2,1.2-2.3,2.3-2.3,4.7v123.3c0,3.5,2.3,5.8,5.8,5.8h34.9
			c3.5,0,5.8-2.3,5.8-5.8v-52.4c0-7,4.7-11.6,11.6-11.6h23.3c7,0,11.6,4.7,11.6,11.6v52.4c0,3.5,2.3,5.8,5.8,5.8H320
			c3.5,0,5.8-2.3,5.8-5.8V219.9c0-2.3-1.2-3.5-2.3-4.7L259.5,172.2z"/>
	</g>
</g>
</svg>
