<?xml version="1.0" encoding="utf-8"?>
<!-- Generator: Adobe Illustrator 19.2.1, SVG Export Plug-In . SVG Version: 6.00 Build 0)  -->
<svg version="1.1" id="Capa_1" xmlns="http://www.w3.org/2000/svg" xmlns:xlink="http://www.w3.org/1999/xlink" x="0px" y="0px"
	 viewBox="0 0 512 512" style="enable-background:new 0 0 512 512;" xml:space="preserve">
<style type="text/css">
	.st0{fill:#FFA500;}
</style>
<g>
	<g>
		<path class="st0" d="M512,250.9c-15.6,11.5-23.7,58.3-23.7,58.3l16.9,12.2l-26.4,48.7L447,354.5l-21.7,21l-24.4-12.2l0.7-16.9
			l-13.5,16.9l-22.4-9.5l-2-19l-13.5,15.6l-21.7-8.8l-0.7-19.6l-9.5,12.2L296.7,316l15.6-27.8l-35.2-19l-8.8,12.2l-27.1-16.2
			l4.3-10.8l-15.1-6.1l-8.4,19.6l-29.6-14.3l-19.2,42.2l12.7,8.1l-12.4,24.8L43.3,266.5l10.6-23l15.1,6.1l74.5-159.1L129.4,83
			l14.2-25.1l128.7,63l-12.9,24.4l-11.5-6.8l-16.9,37.9l25.1,14.2l-8.8,17.6l18.3,8.1l5.2-10.8l27.3,15.6l-2.7,10.2l33.9,15.6
			l8.1-0.7l-2.7-7.5l-12.4-9.7l19.9-14.4l86.7-7.2l70.4-74L512,250.9z M235.7,378.3v-33.2H27.1v33.2H0v75.8h262.8v-75.8H235.7z"/>
	</g>
</g>
</svg>
