<?xml version="1.0" encoding="utf-8"?>
<!-- Generator: Adobe Illustrator 19.2.1, SVG Export Plug-In . SVG Version: 6.00 Build 0)  -->
<svg version="1.1" id="Camada_1" xmlns="http://www.w3.org/2000/svg" xmlns:xlink="http://www.w3.org/1999/xlink" x="0px" y="0px"
	 viewBox="0 0 618.1 182.4" style="enable-background:new 0 0 618.1 182.4;" xml:space="preserve">
<style type="text/css">
	.st0{fill:#FFFFFF;}
</style>
<g>
	<g>
		<g>
			<path class="st0" d="M170.6,8c1.4-0.8,1.9-2.6,1.1-4l-1.5-2.6c-0.8-1.4-2.6-1.9-4-1.1l-50.9,29.4c-1.4,0.8-1.9,2.6-1.1,4l1.5,2.6
				c0.8,1.4,2.6,1.9,4,1.1L170.6,8L170.6,8z"/>
			<path class="st0" d="M214.6,84.4c1.4-0.8,1.9-2.6,1.1-4l-1.5-2.6c-0.8-1.4-2.6-1.9-4-1.1l-50.8,29.3c-1.4,0.8-1.9,2.6-1.1,4.1
				l1.5,2.6c0.8,1.4,2.6,1.9,4,1.1L214.6,84.4L214.6,84.4z"/>
			<path class="st0" d="M35.4,120.2c-1.5,0.8-2,2.5-1.2,3.9l7.4,12.7c0.8,1.4,2.6,1.8,4,1L142.1,76l13.7,23.7c0.8,1.4,2.6,1.9,4,1.1
				l45.7-26.5c1.4-0.8,1.9-2.6,1.1-4l-32.2-55.9c-0.8-1.4-2.6-1.9-4.1-1.1l-45.7,26.5c-1.4,0.8-1.9,2.6-1.1,4l13.6,23.7L35.4,120.2
				L35.4,120.2z"/>
			<path class="st0" d="M19.3,127.6c-1.4,0.8-1.9,2.6-1.1,4l8.8,15.2c0.8,1.4,2.6,1.9,4.1,1.1l5.1-2.9c1.4-0.8,1.9-2.6,1.1-4
				l-8.8-15.3c-0.8-1.4-2.7-1.9-4.1-1.1L19.3,127.6L19.3,127.6z"/>
		</g>
	</g>
	<g>
		<g>
			<path class="st0" d="M226.8,106.9V1.6h5.6v100.2h66.4v5.2H226.8z"/>
			<path class="st0" d="M305.8,70.7c0.6,21.8,11.4,32.8,32.2,32.8c7,0,13.3-1.6,18.7-4.8c5.4-3.2,9.3-7.9,11.7-14.1h5.7
				c-2.6,8.6-7.5,14.8-14.2,18.8c-6.2,3.6-13.7,5.3-22.3,5.3c-12.4,0-21.9-3.7-28.5-10.9c-6-6.9-8.9-16.4-8.9-28.6
				c0-11.8,3.4-21.5,10.3-28.8s16.2-11.1,27.9-11.1c11.6,0,20.9,3.3,27.8,10s10.4,15.6,10.4,27.1v4.4H305.8z M338.5,34.4
				c-9.5,0-17.2,2.9-22.9,8.5c-5.9,5.6-9.1,13.2-9.8,22.7h64.5c-0.2-9.5-3.2-17.1-8.8-22.7C355.7,37.2,348.1,34.4,338.5,34.4z"/>
			<path class="st0" d="M389.4,15.2c-1.1,0-2-0.7-2.5-2.2V2.5c0.6-1.6,1.5-2.3,2.5-2.3c0.9,0,2,0.7,3.1,2.2v10.9
				C391.4,14.6,390.4,15.2,389.4,15.2z M386.8,106.9V30.5h5.6v76.4H386.8z"/>
			<path class="st0" d="M407.9,106.9V1.6h5.6v105.3H407.9z"/>
			<path class="st0" d="M496.2,106.9V89.8c-6.7,12.5-17.6,18.8-32.8,18.8c-11.7,0-20.9-3.8-27.5-11.5c-6.3-7.2-9.5-16.6-9.5-28.1
				c0-11.8,3.2-21.3,9.5-28.7c6.9-7.7,16.2-11.5,28.1-11.5c15.3,0,25.9,6.1,32.1,18.4V29.1h5.6v77.8H496.2z M463.2,34
				c-10,0-17.8,3.6-23.4,10.6c-5.3,6.4-7.9,14.6-7.9,24.6c0,10,2.6,18,7.8,24.3c5.7,6.8,13.5,10.1,23.6,10.1c10,0,17.9-3.3,23.9-10
				c6-6.7,8.9-14.8,8.9-24.6c0-10.8-2.8-19.2-8.4-25.4C481.9,37.2,473.8,34,463.2,34z M480.8,20c-2.3,2.2-4.9,3.2-7.9,3.2
				c-2,0-5.6-1.4-11.1-4.2c-5.4-2.8-8.7-4.2-9.9-4.2c-2,0-3.6,0.8-4.7,2.4c-1.1,1.6-2,3.9-2.3,7.1l-4.7-3.2c0-3.2,1.3-5.9,3.8-8
				c2.5-2.2,5.2-3.2,8-3.2c1.8,0,5.6,1.5,11.1,4.4c5.3,2.6,8.5,4,9.6,4c1.8,0,3.4-0.8,4.8-2.3c1.4-1.6,2.1-3.9,2.2-7l4.9,2.8
				C484.5,15,483.1,17.8,480.8,20z"/>
			<path class="st0" d="M549.2,108.6c-12,0-21.6-3.7-28.6-11.1c-6.9-7.1-10.2-16.6-10.2-28.5c0-12,3.6-21.7,10.7-28.9
				c7.1-7.2,16.6-10.9,28.5-10.9s21.3,3.7,28.5,10.9c7,7.2,10.6,16.9,10.6,28.9c0,11.9-3.6,21.5-10.7,28.7
				C570.5,105,561,108.6,549.2,108.6z M549.3,34.4c-10.3,0-18.5,3.2-24.4,9.5c-6,6.3-8.9,14.7-8.9,25.1c0,10.3,3,18.7,8.9,25
				c6,6.3,14.1,9.5,24.3,9.5c10.2,0,18.4-3.2,24.4-9.5c6.1-6.3,9.1-14.7,9.1-25c0-10.6-3-18.9-8.9-25.2
				C567.9,37.5,559.7,34.4,549.3,34.4z"/>
		</g>
		<g>
			<path class="st0" d="M286.2,168.8v-8.6c-3.3,6.3-8.8,9.4-16.4,9.4c-5.9,0-10.4-2-13.8-5.7c-3.2-3.7-4.7-8.4-4.7-14.2
				c0-6,1.6-10.7,4.7-14.3c3.4-3.9,8.1-5.9,14.1-5.9c7.7,0,13,3.1,16.2,9.3v-22.8h2.8v52.8h-2.9V168.8z M269.7,132
				c-4.9,0-8.9,1.7-11.8,5.3c-2.6,3.3-4,7.3-4,12.3c0,5,1.3,9.1,3.9,12.3c2.9,3.4,6.8,5.2,11.8,5.2c4.9,0,9.1-1.7,12-5.2
				c3-3.2,4.5-7.3,4.5-12.3c0-5.4-1.4-9.6-4.2-12.8C279.1,133.6,275.1,132,269.7,132z"/>
			<path class="st0" d="M297.7,150.6c0.3,11,5.7,16.4,16.2,16.4c3.6,0,6.7-0.8,9.4-2.4c2.8-1.6,4.7-4,5.9-7.1h2.9
				c-1.4,4.4-3.8,7.5-7.1,9.4c-3.1,1.7-6.9,2.6-11.1,2.6c-6.2,0-11-1.8-14.2-5.5c-3-3.4-4.5-8.3-4.5-14.3c0-6,1.7-10.8,5.2-14.5
				s8.1-5.6,14-5.6c5.9,0,10.4,1.6,14,4.9c3.4,3.3,5.3,7.8,5.3,13.5v2.2L297.7,150.6z M314.2,132.4c-4.8,0-8.6,1.4-11.5,4.2
				s-4.6,6.7-4.9,11.5h32.4c-0.1-4.8-1.6-8.6-4.5-11.5C322.8,133.9,318.9,132.4,314.2,132.4z"/>
			<path class="st0" d="M387.7,169.3c-6.7,0-12-1.1-16.2-3.6c-4.9-3-7.3-7.6-7.3-13.9v-1.4h2.8v1c0,10.1,6.9,15.1,20.8,15.1
				c4.7,0,8.7-0.7,11.8-2.2c4.2-2,6.4-5,6.4-9.2c0-2.9-0.8-5-2.3-6.5c-1.3-1.3-3.4-2.4-6.4-3.3c-1.6-0.5-5.3-1.4-11.1-2.5
				c-6.7-1.4-11-2.8-13.4-3.9c-4.5-2.4-6.7-5.9-6.7-10.4c0-8.8,6.8-13.2,20.3-13.2c14.1,0,21.3,5.4,21.5,16.2h-2.8
				c-0.3-5.4-2.3-9.1-6-11.1c-2.9-1.6-7.1-2.5-12.7-2.5c-11.6,0-17.4,3.6-17.4,10.7c0,3.6,1.6,6.2,4.9,7.9c2.2,1.1,5.7,2.2,10.9,3.1
				c9.4,1.7,15.7,3.6,18.8,5.5c3.7,2.2,5.5,5.6,5.5,10.4c0,4.8-2.5,8.5-7.5,10.9C397.6,168.4,393,169.3,387.7,169.3z"/>
			<path class="st0" d="M416.2,150.6c0.3,11,5.7,16.4,16.2,16.4c3.6,0,6.7-0.8,9.4-2.4c2.8-1.6,4.7-4,5.9-7.1h2.9
				c-1.4,4.4-3.8,7.5-7.1,9.4c-3.1,1.7-6.9,2.6-11.1,2.6c-6.2,0-11-1.8-14.2-5.5c-3-3.4-4.5-8.3-4.5-14.3c0-6,1.7-10.8,5.2-14.5
				s8.1-5.6,14-5.6c5.9,0,10.4,1.6,14,4.9c3.4,3.3,5.3,7.8,5.3,13.5v2.2L416.2,150.6z M432.7,132.4c-4.8,0-8.6,1.4-11.5,4.2
				s-4.6,6.7-4.9,11.5h32.4c-0.1-4.8-1.6-8.6-4.5-11.5C441.3,133.9,437.4,132.4,432.7,132.4z"/>
			<path class="st0" d="M473.4,168.8h-2.8l-17.9-38h3.3l15.9,34.9l14.8-34.9h3L473.4,168.8z"/>
			<path class="st0" d="M494.9,122.9c-0.6,0-1-0.3-1.3-1.1v-5.3c0.3-0.8,0.7-1.1,1.3-1.1c0.5,0,1,0.3,1.6,1.1v5.5
				C495.9,122.5,495.3,122.9,494.9,122.9z M493.6,168.8v-38.3h2.8v38.3H493.6z"/>
			<path class="st0" d="M532.5,167c-3,2-6.7,3-10.9,3c-6,0-10.7-1.7-14.1-5.3c-3.4-3.6-5.2-8.3-5.2-14c0-6.3,1.8-11.4,5.4-15.1
				c3.6-3.8,8.5-5.6,14.8-5.6c3.9,0,7.1,0.9,10,2.6c3.1,2,5.2,4.9,6.2,8.7l-2.5,1.4c-1.7-6.8-6.3-10.1-13.8-10.1
				c-5.5,0-9.8,1.7-12.8,5.2c-2.9,3.3-4.4,7.7-4.4,13.1c0,5,1.5,9.1,4.4,12.2c2.9,3,6.9,4.6,12,4.6c3.7,0,6.8-0.8,9.4-2.5
				c2.9-1.8,4.7-4.7,5.4-8.5l2.8,1.1C538,161.6,535.8,164.9,532.5,167z M522,182.4c-2,0-4.6-0.5-7.9-1.4l1.3-2.5
				c2.6,0.9,4.8,1.4,6.4,1.4c3.9,0,5.7-1.1,5.7-3.3c0-1.4-1.4-2.2-4.2-2.5c-1.5-0.1-2.6,0-3.6,0.5v-1.4l0.6-5.9h2.8l-0.1,4.1
				c0.1,0,0.3,0,0.6,0c4.7,0,7,1.8,7,5.4C530.6,180.5,527.7,182.4,522,182.4z"/>
			<path class="st0" d="M562.3,169.7c-6.1,0-10.8-1.8-14.3-5.6c-3.4-3.6-5.2-8.4-5.2-14.2c0-6.1,1.7-10.9,5.4-14.5
				c3.6-3.7,8.4-5.5,14.3-5.5c6,0,10.7,1.8,14.2,5.5c3.6,3.7,5.3,8.5,5.3,14.5c0,6-1.8,10.8-5.4,14.5
				C573,167.8,568.3,169.7,562.3,169.7z M562.3,132.4c-5.2,0-9.3,1.6-12.3,4.7c-3,3.2-4.5,7.3-4.5,12.6c0,5.2,1.5,9.4,4.5,12.5
				c3,3.2,7.1,4.7,12.3,4.7s9.2-1.6,12.3-4.7c3-3.2,4.6-7.3,4.6-12.5c0-5.3-1.5-9.5-4.5-12.6C571.8,134,567.6,132.4,562.3,132.4z"/>
			<path class="st0" d="M603,169.8c-11.1,0-16.8-4.9-16.8-14.8h3c0,8,4.6,12,13.9,12c3.2,0,5.9-0.6,7.9-1.6c2.8-1.4,4.1-3.6,4.1-6.4
				c0-3.6-2.8-6-8.3-7.2c-0.3-0.1-3-0.6-7.9-1.4c-7.5-1.1-11.1-4.5-11.1-9.9c0-3.4,1.5-6.2,4.4-8.1c2.5-1.7,5.7-2.6,9.4-2.6
				c10.8,0,16.2,4.4,16.2,13.1h-3c0-6.9-4.2-10.3-12.7-10.3c-2.9,0-5.4,0.6-7.6,1.8c-2.4,1.5-3.7,3.6-3.7,6.2c0,3.6,2.6,5.9,8,6.9
				c1.4,0.2,4.1,0.8,8.3,1.5c7.3,1.3,11,4.7,11,10.1c0,3.9-1.7,6.7-4.9,8.6C610.5,169.1,607.1,169.8,603,169.8z"/>
		</g>
	</g>
	<g>
		<path class="st0" d="M248.2,135c1.8-2,3.9-3.5,6.3-4.5c-21.7,1.8-76.4,6.4-84.9,6.4c-10.5,0-8,12.3-8,12.3
			C65.6,155.4,0,181.4,0,181.4c91.4-19.1,175.5-23.9,244.9-22.5c-1-2.7-1.6-5.7-1.6-9.2C243.3,143.7,245,138.8,248.2,135z"/>
	</g>
</g>
</svg>
