<?xml version="1.0" encoding="utf-8"?>
<!-- Generator: Adobe Illustrator 19.2.1, SVG Export Plug-In . SVG Version: 6.00 Build 0)  -->
<svg version="1.1" id="Capa_1" xmlns="http://www.w3.org/2000/svg" xmlns:xlink="http://www.w3.org/1999/xlink" x="0px" y="0px"
	 viewBox="0 0 512 512" style="enable-background:new 0 0 512 512;" xml:space="preserve">
<style type="text/css">
	.st0{fill:#FFA500;}
</style>
<g>
	<g>
		<g>
			<circle class="st0" cx="273.3" cy="55.6" r="42.1"/>
			<path class="st0" d="M378.3,169c-9.1-19.7-20.6-38.4-37.9-51.9c-1.9-1.5-3.8-2.4-5.7-3.2c-0.1-0.2-0.2-0.3-0.3-0.5
				c-30-15.1-96.9-8.2-117.3-4l0,0.6c-30.7-20.5-47.7-57.3-53.6-93.9c-4.6-28.4-47.7-16.3-43.1,11.9c9.2,56.1,42.1,107.8,94.2,131
				l-0.3,6.2c0,30.9,0.2,146.8,0.2,148.4l0.8,173.9c0,13.3,11.1,24.1,24.8,24.1c13.7,0,24.8-10.8,24.8-24.1V319c0,0-0.2-8.3,8.5-8.2
				c8.7,0.1,9.5,8.6,9.5,8.6v168.5c0,13.3,11.1,24.1,24.8,24.1c13.7,0,23.4-10.8,23.4-24.1V326.2l-0.1-25.6
				c19.3-12.4,34.4-30.3,45.2-50.5c6-11.1,16.2-26.6,16.2-39.8C392.1,196.7,383.7,180.8,378.3,169z M350,212.4
				c-2.6,5.9-5.3,11.8-8.6,17.4c-3.4,5.9-7,11.5-10.9,16.7l-0.2-81.9c9.6,13.4,16.3,29,20.9,44.7C350.9,210.3,350.6,211.3,350,212.4
				z M351.7,207.7C351.7,205.6,352.1,205.7,351.7,207.7L351.7,207.7z"/>
		</g>
	</g>
</g>
</svg>
