<?xml version="1.0" encoding="utf-8"?>
<!-- Generator: Adobe Illustrator 19.2.1, SVG Export Plug-In . SVG Version: 6.00 Build 0)  -->
<svg version="1.1" id="Capa_1" xmlns="http://www.w3.org/2000/svg" xmlns:xlink="http://www.w3.org/1999/xlink" x="0px" y="0px"
	 viewBox="0 0 512 512" style="enable-background:new 0 0 512 512;" xml:space="preserve">
<style type="text/css">
	.st0{fill:#FFA500;}
</style>
<g>
	<g>
		<g>
			<rect x="96.1" y="297.7" class="st0" width="316.3" height="214.3"/>
			<path class="st0" d="M442.3,256.9c11.4-75.7-49.6-113.2-72.6-127.3c-1-0.6-2-1-3-1.4c-6.4-4.3-13.7-7.5-21-9.3l-14.4,14.5
				l-14-14.7c0,0-0.1,0-0.1,0c-7.5,1.8-14.9,5-21.4,9.4c-1.8,0.7-3.5,1.6-5.1,2.9c-47.7,37.3-68.9,17.3-71.4,15.5
				c-8.4-5.9-19.3-5.2-26.9,0.9l-35.8-33.7l7.2-8.6c3-3.6,4.4-8,4.4-12.3l-22.4-18.7c-4.3,0.8-8.3,3-11.3,6.6l-20.8,24.9
				c-2.8,3.4-4.3,7.5-4.4,11.6l23.1,19.2c4-0.9,7.8-3,10.6-6.4l7.5-9l35.6,33.7l0.6-0.4c-5.3,9.8-2.6,22.3,6.7,28.9
				c2.5,1.8,49.6,27.1,78.8,5.4v68.4H155.6c3.8,0,6.9-3.1,6.9-6.9s-3.1-6.9-6.9-6.9H155c0-6.8-5.5-12.3-12.3-12.3H92.1
				c-6.8,0-12.3,5.5-12.3,12.3h-0.5c-3.8,0-6.9,3.1-6.9,6.9s3.1,6.9,6.9,6.9h-25V282h403.5v-25.1L442.3,256.9L442.3,256.9z
				 M331.2,135.5h0.3l13.9,93.1l-13.9,19.1h-0.3l-13.9-19.1L331.2,135.5z M390.4,207.7c7.5,13.1,10.6,29,6.2,49.2h-6.2V207.7z"/>
			<circle class="st0" cx="331.3" cy="57.8" r="57.8"/>
		</g>
	</g>
</g>
</svg>
