<?xml version="1.0" encoding="utf-8"?>
<!-- Generator: Adobe Illustrator 19.2.1, SVG Export Plug-In . SVG Version: 6.00 Build 0)  -->
<svg version="1.1" id="Capa_1" xmlns="http://www.w3.org/2000/svg" xmlns:xlink="http://www.w3.org/1999/xlink" x="0px" y="0px"
	 viewBox="0 0 512 512" style="enable-background:new 0 0 512 512;" xml:space="preserve">
<style type="text/css">
	.st0{fill:#FFA500;}
</style>
<g>
	<g>
		<path class="st0" d="M297.9,441.2c-10.6,0-19.3,8.7-19.3,19.3s8.7,19.3,19.3,19.3H475c10.6,0,19.3-8.7,19.3-19.3V153
			c0-5.5-2.3-10.6-6.1-14.2L343.3,5.2c-3.5-3.2-8.4-5.2-13.2-5.2H114.3C103.7,0,95,8.7,95,19.3v209.3c0,10.6,8.7,19.3,19.3,19.3
			s19.3-8.7,19.3-19.3v-190h154.6v167.4c0,10.6,8.7,19.3,19.3,19.3h144.9c1,0,2.3,0,3.2-0.3v216.1L297.9,441.2L297.9,441.2z
			 M452.4,186.8H326.8V42.5l128.8,118.8v25.8C454.7,186.8,453.4,186.8,452.4,186.8z M17.7,412.2c0-10.6,8.7-19.3,19.3-19.3h58v-61.2
			c0-10.6,8.7-19.3,19.3-19.3s19.3,8.7,19.3,19.3v61.2H198c10.6,0,19.3,8.7,19.3,19.3c0,10.6-8.7,19.3-19.3,19.3h-64.4v61.2
			c0,10.6-8.7,19.3-19.3,19.3S95,503.3,95,492.7v-61.2H37C26.4,431.5,17.7,422.8,17.7,412.2z"/>
	</g>
</g>
</svg>
