<?xml version="1.0" encoding="utf-8"?>
<!-- Generator: Adobe Illustrator 19.2.1, SVG Export Plug-In . SVG Version: 6.00 Build 0)  -->
<svg version="1.1" id="Capa_1" xmlns="http://www.w3.org/2000/svg" xmlns:xlink="http://www.w3.org/1999/xlink" x="0px" y="0px"
	 viewBox="0 0 512 512" style="enable-background:new 0 0 512 512;" xml:space="preserve">
<style type="text/css">
	.st0{fill:#FFA500;}
</style>
<g>
	<g>
		<g>
			<g>
				<path class="st0" d="M291.1,383.2c0-20.8,5.2-40.9,14.9-58.8c-13.9-7.8-24.1-12.9-28.3-14.9c-1.3-0.6-2.1-2-2.1-3.4v-82
					c10.3-6.8,17.1-18.6,17.1-32v-85.1c0-42.4-34.3-76.7-76.7-76.7h-9.1h-9.1c-42.4,0-76.7,34.3-76.7,76.7v85.1
					c0,13.4,6.8,25,17.1,32v82c0,1.5-0.8,2.7-2.1,3.4c-11.6,5.7-68.4,34.4-121.1,77.7C5.5,395,0,406.8,0,419.1v58.3h206.8h128.1
					c-2.7-2.3-5.5-4.7-8-7.4C303.8,446.9,291.1,415.9,291.1,383.2z"/>
			</g>
			<g>
				<path class="st0" d="M512,376.7c0-4.6-3.7-8.3-8.3-8.3h-12.6c-2-10.4-6.1-20.4-12.3-29.4l8.9-8.9c3.3-3.3,3.3-8.5,0-11.8l-9-9
					c-3.3-3.3-8.5-3.3-11.8,0l-8.9,8.9c-9-6.2-19.1-10.2-29.5-12.2v-12.6c0-4.6-3.7-8.3-8.3-8.3h-12.8c-4.6,0-8.3,3.7-8.3,8.3v12.6
					c-10.4,2-20.5,6-29.7,12.2l-8.8-8.8c-3.3-3.3-8.5-3.3-11.8,0l-9,9c-3.3,3.3-3.3,8.5,0,11.8l8.7,8.7
					c-6.3,9.1-10.4,19.2-12.4,29.8h-12.3c-4.6,0-8.3,3.7-8.3,8.3v12.8c0,4.6,3.7,8.3,8.3,8.3h12.2c2,10.5,6.1,20.7,12.4,29.9
					l-8.6,8.6c-3.3,3.3-3.3,8.5,0,11.8l9,9c3.3,3.3,8.5,3.3,11.8,0l8.6-8.6c9.1,6.2,19.3,10.3,29.9,12.3v12.2c0,4.6,3.7,8.3,8.3,8.3
					h12.8c4.6,0,8.3-3.7,8.3-8.3v-12.3c10.5-2,20.6-6.2,29.8-12.4l8.7,8.7c3.3,3.3,8.5,3.3,11.8,0l9-9c3.3-3.3,3.3-8.5,0-11.8
					l-8.8-8.8c6.2-9.1,10.2-19.2,12.2-29.7h12.6c4.6,0,8.3-3.7,8.3-8.3L512,376.7z M444.1,413.4c-16.7,16.7-43.7,16.7-60.5,0.1
					c-16.7-16.7-16.7-43.7-0.1-60.5c16.7-16.7,43.7-16.7,60.5-0.1C460.8,369.6,460.8,396.7,444.1,413.4z"/>
			</g>
		</g>
	</g>
</g>
</svg>
